%TF.GenerationSoftware,KiCad,Pcbnew,7.0.8*%
%TF.CreationDate,2025-05-01T09:06:41-04:00*%
%TF.ProjectId,trifalcon,74726966-616c-4636-9f6e-2e6b69636164,rev?*%
%TF.SameCoordinates,Original*%
%TF.FileFunction,Copper,L1,Top*%
%TF.FilePolarity,Positive*%
%FSLAX46Y46*%
G04 Gerber Fmt 4.6, Leading zero omitted, Abs format (unit mm)*
G04 Created by KiCad (PCBNEW 7.0.8) date 2025-05-01 09:06:41*
%MOMM*%
%LPD*%
G01*
G04 APERTURE LIST*
G04 Aperture macros list*
%AMRoundRect*
0 Rectangle with rounded corners*
0 $1 Rounding radius*
0 $2 $3 $4 $5 $6 $7 $8 $9 X,Y pos of 4 corners*
0 Add a 4 corners polygon primitive as box body*
4,1,4,$2,$3,$4,$5,$6,$7,$8,$9,$2,$3,0*
0 Add four circle primitives for the rounded corners*
1,1,$1+$1,$2,$3*
1,1,$1+$1,$4,$5*
1,1,$1+$1,$6,$7*
1,1,$1+$1,$8,$9*
0 Add four rect primitives between the rounded corners*
20,1,$1+$1,$2,$3,$4,$5,0*
20,1,$1+$1,$4,$5,$6,$7,0*
20,1,$1+$1,$6,$7,$8,$9,0*
20,1,$1+$1,$8,$9,$2,$3,0*%
G04 Aperture macros list end*
%TA.AperFunction,SMDPad,CuDef*%
%ADD10RoundRect,0.150000X-0.150000X-0.200000X0.150000X-0.200000X0.150000X0.200000X-0.150000X0.200000X0*%
%TD*%
%TA.AperFunction,ComponentPad*%
%ADD11C,1.750000*%
%TD*%
%TA.AperFunction,SMDPad,CuDef*%
%ADD12C,2.000000*%
%TD*%
%TA.AperFunction,SMDPad,CuDef*%
%ADD13RoundRect,0.200000X-0.200000X-0.275000X0.200000X-0.275000X0.200000X0.275000X-0.200000X0.275000X0*%
%TD*%
%TA.AperFunction,ViaPad*%
%ADD14C,0.800000*%
%TD*%
%TA.AperFunction,Conductor*%
%ADD15C,0.250000*%
%TD*%
G04 APERTURE END LIST*
D10*
%TO.P,D1,1,K*%
%TO.N,Net-(D1-K)*%
X49456800Y-37185600D03*
%TO.P,D1,2,A*%
%TO.N,Net-(D1-A)*%
X48056800Y-37185600D03*
%TD*%
D11*
%TO.P,TP1,1,1*%
%TO.N,Net-(R1-Pad1)*%
X41300400Y-17100000D03*
%TD*%
D12*
%TO.P,TP4,1,1*%
%TO.N,Net-(D1-K)*%
X60807600Y-27940000D03*
%TD*%
D13*
%TO.P,R1,1*%
%TO.N,Net-(R1-Pad1)*%
X49834800Y-16814800D03*
%TO.P,R1,2*%
%TO.N,Net-(R1-Pad2)*%
X51484800Y-16814800D03*
%TD*%
D12*
%TO.P,TP3,1,1*%
%TO.N,Net-(R1-Pad2)*%
X60756800Y-33731200D03*
%TD*%
D11*
%TO.P,TP2,1,1*%
%TO.N,Net-(D1-A)*%
X46075600Y-38506400D03*
%TD*%
D14*
%TO.N,Net-(R1-Pad2)*%
X57912000Y-32715200D03*
X55372000Y-32562800D03*
%TD*%
D15*
%TO.N,Net-(D1-K)*%
X56388000Y-36931600D02*
X56388000Y-32004000D01*
X60452000Y-27940000D02*
X60807600Y-27940000D01*
X56388000Y-32004000D02*
X60452000Y-27940000D01*
X56134000Y-37185600D02*
X56388000Y-36931600D01*
X49456800Y-37185600D02*
X56134000Y-37185600D01*
%TO.N,Net-(D1-A)*%
X48056800Y-37185600D02*
X48056800Y-37642800D01*
X47193200Y-38506400D02*
X46075600Y-38506400D01*
X48056800Y-37642800D02*
X47193200Y-38506400D01*
%TO.N,Net-(R1-Pad1)*%
X49733200Y-16916400D02*
X49834800Y-16814800D01*
X41329600Y-17170400D02*
X41583600Y-16916400D01*
X41583600Y-16916400D02*
X49733200Y-16916400D01*
%TO.N,Net-(R1-Pad2)*%
X55372000Y-17221200D02*
X55372000Y-32562800D01*
X57962800Y-32715200D02*
X57912000Y-32715200D01*
X54965600Y-16814800D02*
X55372000Y-17221200D01*
X57962800Y-32715200D02*
X59740800Y-32715200D01*
X59740800Y-32715200D02*
X60756800Y-33731200D01*
X51484800Y-16814800D02*
X54965600Y-16814800D01*
%TD*%
M02*
