%TF.GenerationSoftware,KiCad,Pcbnew,7.0.8*%
%TF.CreationDate,2025-05-01T09:06:43-04:00*%
%TF.ProjectId,trifalcon,74726966-616c-4636-9f6e-2e6b69636164,rev?*%
%TF.SameCoordinates,Original*%
%TF.FileFunction,Drillmap*%
%TF.FilePolarity,Positive*%
%FSLAX45Y45*%
G04 Gerber Fmt 4.5, Leading zero omitted, Abs format (unit mm)*
G04 Created by KiCad (PCBNEW 7.0.8) date 2025-05-01 09:06:43*
%MOMM*%
%LPD*%
G01*
G04 APERTURE LIST*
%ADD10C,0.100000*%
%ADD11C,0.200000*%
G04 APERTURE END LIST*
D10*
X4217021Y-1828179D02*
X4277360Y-1767840D01*
X4897120Y-3794760D02*
X5481320Y-3794760D01*
X4277360Y-1767840D02*
X5410200Y-1767840D01*
X4018218Y-1658590D02*
X4018218Y-1767840D01*
X4566920Y-3743960D02*
X4643120Y-3743960D01*
X4078315Y-1598493D02*
X5567680Y-1598493D01*
X4079338Y-1828179D02*
X4217021Y-1828179D01*
X5481320Y-1838960D02*
X5481320Y-3622040D01*
X4505960Y-3906520D02*
X4505960Y-3804920D01*
X5481320Y-3622040D02*
X4765040Y-3622040D01*
X4505960Y-3804920D02*
X4566755Y-3744125D01*
X5567680Y-1598493D02*
X5638800Y-1669613D01*
X4739499Y-3952381D02*
X4897120Y-3794760D01*
X6177280Y-2499360D02*
X5638800Y-2499360D01*
X5638800Y-2499360D02*
X5638800Y-1669748D01*
X5913120Y-3794760D02*
X5481320Y-3794760D01*
X6238240Y-3469640D02*
X6238240Y-2560320D01*
X4765040Y-3622040D02*
X4643120Y-3743960D01*
X4552151Y-3952782D02*
X4739640Y-3952782D01*
X4079338Y-1828179D02*
X4018218Y-1767059D01*
X5913120Y-3794760D02*
X6238240Y-3469640D01*
X5410200Y-1767840D02*
X5481353Y-1838993D01*
X6177280Y-2499360D02*
X6238240Y-2560320D01*
X4078315Y-1598493D02*
X4018218Y-1658590D01*
X4552151Y-3952782D02*
X4506160Y-3906791D01*
D11*
X4273995Y-4269266D02*
X4273995Y-4069266D01*
X4273995Y-4069266D02*
X4321614Y-4069266D01*
X4321614Y-4069266D02*
X4350186Y-4078789D01*
X4350186Y-4078789D02*
X4369233Y-4097837D01*
X4369233Y-4097837D02*
X4378757Y-4116885D01*
X4378757Y-4116885D02*
X4388281Y-4154980D01*
X4388281Y-4154980D02*
X4388281Y-4183551D01*
X4388281Y-4183551D02*
X4378757Y-4221647D01*
X4378757Y-4221647D02*
X4369233Y-4240694D01*
X4369233Y-4240694D02*
X4350186Y-4259742D01*
X4350186Y-4259742D02*
X4321614Y-4269266D01*
X4321614Y-4269266D02*
X4273995Y-4269266D01*
X4473995Y-4269266D02*
X4473995Y-4135932D01*
X4473995Y-4174027D02*
X4483519Y-4154980D01*
X4483519Y-4154980D02*
X4493043Y-4145456D01*
X4493043Y-4145456D02*
X4512091Y-4135932D01*
X4512091Y-4135932D02*
X4531138Y-4135932D01*
X4597805Y-4269266D02*
X4597805Y-4135932D01*
X4597805Y-4069266D02*
X4588281Y-4078789D01*
X4588281Y-4078789D02*
X4597805Y-4088313D01*
X4597805Y-4088313D02*
X4607329Y-4078789D01*
X4607329Y-4078789D02*
X4597805Y-4069266D01*
X4597805Y-4069266D02*
X4597805Y-4088313D01*
X4721614Y-4269266D02*
X4702567Y-4259742D01*
X4702567Y-4259742D02*
X4693043Y-4240694D01*
X4693043Y-4240694D02*
X4693043Y-4069266D01*
X4826376Y-4269266D02*
X4807329Y-4259742D01*
X4807329Y-4259742D02*
X4797805Y-4240694D01*
X4797805Y-4240694D02*
X4797805Y-4069266D01*
X5054948Y-4269266D02*
X5054948Y-4069266D01*
X5054948Y-4069266D02*
X5121614Y-4212123D01*
X5121614Y-4212123D02*
X5188281Y-4069266D01*
X5188281Y-4069266D02*
X5188281Y-4269266D01*
X5369233Y-4269266D02*
X5369233Y-4164504D01*
X5369233Y-4164504D02*
X5359710Y-4145456D01*
X5359710Y-4145456D02*
X5340662Y-4135932D01*
X5340662Y-4135932D02*
X5302567Y-4135932D01*
X5302567Y-4135932D02*
X5283519Y-4145456D01*
X5369233Y-4259742D02*
X5350186Y-4269266D01*
X5350186Y-4269266D02*
X5302567Y-4269266D01*
X5302567Y-4269266D02*
X5283519Y-4259742D01*
X5283519Y-4259742D02*
X5273995Y-4240694D01*
X5273995Y-4240694D02*
X5273995Y-4221647D01*
X5273995Y-4221647D02*
X5283519Y-4202599D01*
X5283519Y-4202599D02*
X5302567Y-4193075D01*
X5302567Y-4193075D02*
X5350186Y-4193075D01*
X5350186Y-4193075D02*
X5369233Y-4183551D01*
X5464472Y-4135932D02*
X5464472Y-4335932D01*
X5464472Y-4145456D02*
X5483519Y-4135932D01*
X5483519Y-4135932D02*
X5521614Y-4135932D01*
X5521614Y-4135932D02*
X5540662Y-4145456D01*
X5540662Y-4145456D02*
X5550186Y-4154980D01*
X5550186Y-4154980D02*
X5559710Y-4174027D01*
X5559710Y-4174027D02*
X5559710Y-4231170D01*
X5559710Y-4231170D02*
X5550186Y-4250218D01*
X5550186Y-4250218D02*
X5540662Y-4259742D01*
X5540662Y-4259742D02*
X5521614Y-4269266D01*
X5521614Y-4269266D02*
X5483519Y-4269266D01*
X5483519Y-4269266D02*
X5464472Y-4259742D01*
X5645424Y-4250218D02*
X5654948Y-4259742D01*
X5654948Y-4259742D02*
X5645424Y-4269266D01*
X5645424Y-4269266D02*
X5635900Y-4259742D01*
X5635900Y-4259742D02*
X5645424Y-4250218D01*
X5645424Y-4250218D02*
X5645424Y-4269266D01*
X5645424Y-4145456D02*
X5654948Y-4154980D01*
X5654948Y-4154980D02*
X5645424Y-4164504D01*
X5645424Y-4164504D02*
X5635900Y-4154980D01*
X5635900Y-4154980D02*
X5645424Y-4145456D01*
X5645424Y-4145456D02*
X5645424Y-4164504D01*
M02*
