%TF.GenerationSoftware,KiCad,Pcbnew,7.0.8*%
%TF.CreationDate,2025-05-01T09:06:41-04:00*%
%TF.ProjectId,trifalcon,74726966-616c-4636-9f6e-2e6b69636164,rev?*%
%TF.SameCoordinates,Original*%
%TF.FileFunction,Profile,NP*%
%FSLAX46Y46*%
G04 Gerber Fmt 4.6, Leading zero omitted, Abs format (unit mm)*
G04 Created by KiCad (PCBNEW 7.0.8) date 2025-05-01 09:06:41*
%MOMM*%
%LPD*%
G01*
G04 APERTURE LIST*
%TA.AperFunction,Profile*%
%ADD10C,0.100000*%
%TD*%
G04 APERTURE END LIST*
D10*
X42170212Y-18281788D02*
X42773600Y-17678400D01*
X48971200Y-37947600D02*
X54813200Y-37947600D01*
X42773600Y-17678400D02*
X54102000Y-17678400D01*
X40182185Y-16585896D02*
X40182185Y-17678400D01*
X45669200Y-37439600D02*
X46431200Y-37439600D01*
X40783147Y-15984934D02*
X55676800Y-15984934D01*
X40793384Y-18281788D02*
X42170212Y-18281788D01*
X54813200Y-18389600D02*
X54813200Y-36220400D01*
X45059600Y-39065200D02*
X45059600Y-38049200D01*
X54813200Y-36220400D02*
X47650400Y-36220400D01*
X45059600Y-38049200D02*
X45667550Y-37441250D01*
X55676800Y-15984934D02*
X56388000Y-16696134D01*
X47394986Y-39523814D02*
X48971200Y-37947600D01*
X61772800Y-24993600D02*
X56388000Y-24993600D01*
X56388000Y-24993600D02*
X56388000Y-16697484D01*
X59131200Y-37947600D02*
X54813200Y-37947600D01*
X62382400Y-34696400D02*
X62382400Y-25603200D01*
X47650400Y-36220400D02*
X46431200Y-37439600D01*
X45521512Y-39527818D02*
X47396400Y-39527818D01*
X40793384Y-18281788D02*
X40182185Y-17670589D01*
X59131200Y-37947600D02*
X62382400Y-34696400D01*
X54102000Y-17678400D02*
X54813527Y-18389927D01*
X61772800Y-24993600D02*
X62382400Y-25603200D01*
X40783147Y-15984934D02*
X40182185Y-16585896D01*
X45521512Y-39527818D02*
X45061604Y-39067910D01*
M02*
